HIERARCHY
ROOT Hips
{
  OFFSET 0.0 0.0 0.0
  CHANNELS 6 XPOSITION YPOSITION ZPOSITION ZROTATION XROTATION YROTATION 
  JOINT LeftUpLeg
  {
    OFFSET 0.089458 -0.0866707 0.00101652
    CHANNELS 3 ZROTATION XROTATION YROTATION 
    JOINT LeftLeg
    {
      OFFSET 0.0 -0.444227 0.013727
      CHANNELS 3 ZROTATION XROTATION YROTATION 
      JOINT LeftFoot
      {
        OFFSET -0.00253549 -0.420924 -0.0146059
        CHANNELS 3 ZROTATION XROTATION YROTATION 
        End Site
        {
          OFFSET -0.0004 -0.0441509 0.084991
        }
      }
    }
  }
  JOINT Spine
  {
    OFFSET 0.0 0.118905 0.0
    CHANNELS 3 ZROTATION XROTATION YROTATION 
    JOINT Spine1
    {
      OFFSET 0.0 0.256574 0.00127663
      CHANNELS 3 ZROTATION XROTATION YROTATION 
      End Site
      {
        OFFSET -0.0029 0.2150836 0.02525291
      }
      JOINT RightArm
      {
        OFFSET -0.162727 -0.05365632 0.00102123
        CHANNELS 3 ZROTATION XROTATION YROTATION 
        JOINT RightForeArm
        {
          OFFSET -0.26364 0.00099144 -0.0142434
          CHANNELS 3 ZROTATION XROTATION YROTATION 
          End Site
          {
            OFFSET -0.220324 0.00085362 0.0102216
          }
        }
      }
      JOINT LeftArm
      {
        OFFSET 0.162727 -0.0536563199 0.00102123
        CHANNELS 3 ZROTATION XROTATION YROTATION 
        JOINT LeftForeArm
        {
          OFFSET 0.262597 0.00099144 -0.0142434
          CHANNELS 3 ZROTATION XROTATION YROTATION 
          End Site
          {
            OFFSET 0.220902 0.00085362 0.0102216
          }
        }
      }
    }
  }
  JOINT RightUpLeg
  {
    OFFSET -0.089458 -0.0866707 0.00101652
    CHANNELS 3 ZROTATION XROTATION YROTATION 
    JOINT RightLeg
    {
      OFFSET 0.0 -0.444227 0.013727
      CHANNELS 3 ZROTATION XROTATION YROTATION 
      JOINT RightFoot
      {
        OFFSET 0.00253549 -0.420924 -0.0146059
        CHANNELS 3 ZROTATION XROTATION YROTATION 
        End Site
        {
          OFFSET 0.0004 -0.0441509 0.084991
        }
      }
    }
  }
}
MOTION
Frames: 11
Frame Time: 0.033333
-21.3279994 0.958090803539 0.9781071 -10.6777764559 -1.40121341495 -95.0317823755 -7.70663136035 11.1965122479 3.40580851594 -0.864940792101 19.0326311883 23.8502436477 -3.94244281865 -47.002472698 -0.521955105605 -13.4461042067 -0.0784855503402 -5.70816795496 11.5272539132 -4.58210881744 -7.43985185533 52.8583490433 -28.2696458331 -29.7064051534 9.09465728083 37.6747702165 1.17931188132 -63.9969259191 -1.00561280693 -13.3867148581 -0.494514073563 24.882474769 -28.2088298288 -3.34899137389 -21.9211250185 1.13511842295 -1.56621520393 54.0762503195 -17.5070555032 13.5726889564 -38.9935704622 0.911780521882 
-21.347127 0.956355403539 0.9793715 -10.1184121374 -1.07738806326 -94.7401059771 -7.15367247863 12.0833303494 3.3536593813 -0.650637043507 18.9139429911 23.7578124052 -4.82935953096 -47.755067337 -0.714831270113 -12.5712312523 -0.15076968912 -5.89452966646 11.4793888012 -4.47242622466 -7.55419092958 53.2241466545 -28.2335756041 -30.2553406268 9.02261329924 37.7422524855 1.4191902594 -64.6924577427 -1.64384926847 -13.7523374457 -0.112365149583 25.4545867818 -29.1333556971 -2.97014084431 -22.8525323024 0.445535614118 -1.40380504485 49.6069638474 -16.8352312663 13.6642724016 -39.1456036429 0.924430245668 
-21.3669776 0.954256003539 0.9800876 -9.67157774682 -0.745675657352 -94.4041289719 -6.58627884588 13.14748919 3.22821292535 -0.323758036972 18.74664263 23.6300895752 -5.68524840142 -48.4540313306 -0.921039483632 -11.561899194 -0.0901491789052 -5.94382527614 11.3962321019 -4.42459654433 -7.53799142842 54.0067087485 -28.3576784338 -30.26899759 9.00272122706 38.0630459802 1.44918567547 -65.430152324 -1.54032270384 -14.0228607481 0.130103471023 25.7852277018 -29.673644151 -2.46366481499 -23.1075476603 -0.12191922353 -1.28457278039 45.1077030902 -16.2983100956 13.2081122415 -38.7038509131 0.807676379378 
-21.387906 0.951348603539 0.9799884 -9.25514879708 -0.461333174657 -94.2025359385 -6.05718806023 14.2420560328 3.11943810739 0.0135757305183 18.7079222876 23.7449545741 -6.49399872133 -49.179127628 -1.14264305026 -10.4328902685 -0.0847694244282 -5.82255868252 11.0340561985 -4.45067121838 -7.3268207623 55.2060899667 -28.600136489 -29.7685632899 9.00607399617 38.8543336408 1.25985667366 -66.0617399165 -0.734186425395 -14.2085266341 0.301656131787 26.0206677376 -29.6694743205 -1.80858948255 -22.931011176 -0.26122512048 -1.19402528273 41.0463086851 -16.8058341321 13.0471870082 -38.436339724 0.742631687499 
-21.410129 0.947514203539 0.9790603 -8.8760391472 -0.265849852239 -94.0058674716 -5.51902635646 15.3049120148 3.10887052409 0.355805631403 19.0184944043 23.8111373996 -7.42966292063 -50.0285094626 -1.42970554907 -9.34284501093 -0.194054065314 -5.64329439133 10.4607779309 -4.41095793722 -7.05786328071 56.8398473105 -28.7342267627 -28.6147360183 9.07947291654 39.8205868423 0.991052337719 -66.4933395702 0.439644282474 -14.2882426257 0.544247402313 26.3300975051 -29.2961771616 -1.12717790116 -22.2612718542 -0.142724339928 -1.10113374952 37.5318894892 -18.051746014 13.7130681268 -38.541985675 0.790116763435 
-21.433628 0.943406803539 0.9774447 -8.57930755513 -0.10011100981 -93.5998605367 -4.81018718996 16.5188347058 3.15388083039 0.744424452074 19.3958999219 23.3893612655 -8.68461285043 -50.8897416754 -1.82071178766 -8.31697706458 -0.339799696733 -5.50045037635 9.92678435006 -4.22620345461 -6.84494365928 58.7567228256 -28.4825821032 -26.9297829916 9.22912919144 40.6591462422 0.940475960854 -66.7200676997 1.82005331474 -14.2733895256 0.667721374334 26.4994981493 -28.595625149 -0.392188448286 -21.0393510117 -0.100855920646 -1.03136294026 34.6728986612 -18.571473891 13.2441696639 -38.0691555844 0.67800299683 
-21.458481 0.939576403539 0.9751744 -8.31670385701 0.144072261752 -93.0859092922 -3.87224981833 17.9119252115 3.15915053478 1.18647088006 19.6268132499 22.6985337347 -10.3896047984 -51.4833943973 -2.30736554079 -7.11379698049 -0.471674614669 -5.28812028563 9.38506667906 -4.09293451107 -6.55291209113 60.6825834545 -27.8616649736 -25.0458648468 9.38935091522 41.6195425565 1.1418659028 -66.8868950702 3.42610058108 -14.168126919 0.39650942339 26.2641554438 -27.2318464001 0.576291821774 -19.8870297969 0.200644837677 -1.02746631734 33.5030716714 -17.7998930337 9.30616262622 -36.5325884174 0.266802210061 
-21.484922 0.935733003539 0.9722367 -8.10969533742 0.539833019036 -92.7949842147 -2.79709373282 19.2500907511 3.055389716 1.74556177755 20.2387025768 22.3667743713 -12.5288798106 -51.7149856215 -2.85233246084 -5.54437660357 -0.514195637182 -4.89865948406 8.63025820501 -4.2345426887 -6.06589655142 62.4893802259 -27.0725680962 -22.8347516124 9.66456826518 43.0751651517 1.01231877203 -67.2666740786 5.02259966985 -13.824733182 -0.191575440357 25.7118168286 -24.9089246766 1.79187451554 -19.4484667653 1.36210407193 -1.09204287446 35.1452882045 -16.8474299841 3.14995603294 -35.2779441386 -0.086534241256 
-21.511284 0.935715003539 0.96332352 -8.61117977911 1.84054004027 -92.5014978163 -0.154487006236 19.4656993326 0.695295008096 1.40052996915 24.6619006399 23.373400821 -18.4941066307 -50.1985880031 -3.96260895218 -4.07757000053 -0.0843657028853 -4.65573014585 9.00762018024 -3.98349012113 -5.81259002142 63.837584436 -26.164871814 -18.4565884016 10.9675002739 44.2342004425 -1.11224998912 -70.0975211122 4.39737567917 -11.8715355747 -3.25986999838 27.6527004586 -18.5341008034 3.88427991589 -17.3095008192 2.58621996649 -1.15271000205 36.6301986508 -17.6153003412 2.24437839004 -37.6649893856 -0.0900502278737 
-21.53677 0.938594003539 0.95435298 -9.08785014355 2.57867004613 -91.3277981093 2.04729989828 18.1604006634 -0.379581012976 1.21717001906 30.8096002326 22.6565007506 -20.6955466097 -46.3077502519 -3.50203648984 -3.77605001896 -0.25226399233 -4.69628012518 9.98433979287 -3.73489983676 -5.76351980799 65.1250682643 -25.9754160268 -14.2273566119 11.7675997323 44.3067985232 -2.41135004826 -73.1044026112 -2.69888393685 -9.20620280772 -6.92983992246 36.9046015008 -12.2428997901 5.04249003449 -14.5422001581 1.86572999137 -1.17440001481 35.9100986368 -18.2882993707 2.0852862088 -39.3642926398 -0.0802005414716 
-21.560018 0.942046003539 0.9463458 -9.26656972715 3.20527010649 -90.149501685 3.94257003093 14.6497005055 -0.719820990106 1.34837998073 39.3352984867 22.0480999427 -17.8509128392 -40.6780829417 -1.85686867469 -2.71644990273 -0.436728992318 -4.54995997079 10.0576004019 -3.88658980049 -5.29763986178 66.7456740789 -26.3029031069 -10.4133397058 11.8522001629 43.5478005819 -2.57185992064 -74.8875259469 -8.93227892483 -6.13364050204 -10.8378001042 46.4165995616 -5.85854011907 5.97314983956 -12.1004997374 0.624487023939 -1.16747996596 34.7163010982 -18.4406996741 1.79853288277 -40.2848860267 -0.0970231639953 
